<svg width="196" height="37" viewBox="0 0 196 37" fill="none" xmlns="http://www.w3.org/2000/svg">
<mask id="mask0_7257_940" style="mask-type:luminance" maskUnits="userSpaceOnUse" x="0" y="0" width="190" height="36">
<path d="M189.836 0H0V35.8889H189.836V0Z" fill="white"/>
</mask>
<g mask="url(#mask0_7257_940)">
<mask id="mask1_7257_940" style="mask-type:luminance" maskUnits="userSpaceOnUse" x="0" y="0" width="190" height="36">
<path d="M189.836 0H0V35.8889H189.836V0Z" fill="white"/>
</mask>
<g mask="url(#mask1_7257_940)">
<path fill-rule="evenodd" clip-rule="evenodd" d="M31.1128 0H0V35.8889H6.31978V21.4745H29.1682V15.297H6.31978V5.29509H31.1128V0ZM38.4049 11.7669H33.7866V35.8889H38.4049V11.7669ZM41.8079 35.8889V11.7669H45.6968L64.4132 29.123V11.7669H68.7884V35.8889H64.8994L46.1831 18.5328V35.8889H41.8079ZM83.6156 11.7669L70.4899 35.8889H75.3513L85.5601 17.6503L95.283 35.8889H100.388L87.0185 11.7669H83.6156ZM101.845 35.8889V11.7669H105.736L124.451 29.4172V11.7669H128.583V35.8889H124.695L105.736 18.5328V35.8889H101.845ZM159.209 11.7669H132.229V16.1795H151.188L132.229 32.3589V35.8889H159.209V31.1822H140.494L159.209 15.297V11.7669ZM160.182 35.8889L173.308 11.7669H176.712L189.836 35.8889H184.732L175.253 17.3562L165.044 35.8889H160.182Z" fill="#FF0000"/>
</g>
</g>
<path d="M188.995 13.0815C192.306 13.0815 194.99 10.3769 194.99 7.04073C194.99 3.70453 192.306 1 188.995 1C185.684 1 183 3.70453 183 7.04073C183 10.3769 185.684 13.0815 188.995 13.0815Z" stroke="#FF0000"/>
<path d="M186.492 10.5379V3.54395H189.185C189.77 3.54395 190.256 3.63729 190.642 3.82397C191.03 4.01066 191.32 4.26907 191.512 4.59919C191.704 4.92705 191.8 5.30609 191.8 5.73639C191.8 6.16443 191.703 6.54121 191.508 6.86679C191.317 7.19005 191.026 7.44163 190.638 7.62151C190.252 7.80134 189.766 7.89126 189.181 7.89126H187.141V6.98286H189.078C189.447 6.98286 189.747 6.93391 189.978 6.83601C190.211 6.73811 190.382 6.59584 190.49 6.40917C190.598 6.22247 190.652 5.9982 190.652 5.73639C190.652 5.47231 190.597 5.24348 190.487 5.04995C190.378 4.85646 190.207 4.70847 189.974 4.60602C189.743 4.50129 189.439 4.44893 189.063 4.44893H187.632V10.5379H186.492ZM190.221 7.38243L192.087 10.5379H190.789L188.959 7.38243H190.221Z" fill="#FF0000"/>
</svg>
